<svg xmlns="http://www.w3.org/2000/svg" xml:space="preserve" viewBox="0 0 512 512"><path d="M234 1c17.688 0 35.375 0 53.815.206 2.927 1.973 5.562 1.06 7.971 1.468 24.314 4.116 47.909 10.753 70.24 21.285 35.882 16.924 66.159 41.002 91.175 71.854 23.174 28.58 39.207 60.627 48.501 96.168 3.699 14.142 5.961 28.494 7.298 43.019 0 14.688 0 29.375-.02 44.933-1.852 17.522-4.776 33.934-9.478 50.065-10.734 36.822-28.985 69.504-54.496 97.94-15.66 17.454-33.247 32.885-53.206 45.557-28.24 17.93-58.597 30.117-91.518 36.133-5.098.932-10.575.552-15.282 3.372-21.02 0-42.042 0-63.766-.272-1.292-.565-1.858-1.05-2.472-1.123-13.027-1.535-25.736-4.451-38.357-8.03-36.929-10.466-69.548-28.849-98.058-54.23-18.522-16.49-34.685-35.24-47.735-56.534-16.827-27.457-28.455-56.833-34.202-88.574C3.49 299.151 3.934 293.664 1 289c0-18.02 0-36.042.031-54.93 1.306-9.876 2.17-18.964 3.93-27.875 6.578-33.327 19.245-64.3 38.252-92.4 20.049-29.642 45.213-54.335 75.453-73.663 20.72-13.242 42.906-23.196 66.562-30.037C201.22 5.471 217.505 2.755 234 1m-24.38 94.052c39.461-20.094 99.883-14.284 131.617 29.564 41.508 57.351 30.06 110.178-19.812 157.521 54.164 22.618 89.646 62.28 106.516 118.796 43.138-45.115 75.092-137.315 37.235-229.161-34.75-84.31-119.662-146.618-225.416-139.08-93.307 6.652-180.052 73.56-202.713 177.65-10.743 49.346-4.652 97.163 16.797 142.797 8.147 17.332 18.115 33.722 32.043 48.587 7.89-28.085 20.873-52.152 39.666-72.983 18.854-20.898 41.667-36.192 68.678-46.989-2.166-1.852-3.394-2.966-4.687-3.998-14.57-11.618-25.772-25.756-32.819-43.134-8.011-19.757-10.148-40.109-6.645-61.078 3.436-20.563 12.442-38.54 26.252-53.98 9.15-10.228 19.958-18.523 33.288-24.512m-96.081 333.726c.583.788 1.037 1.728 1.767 2.341 14.326 12.04 30.098 21.967 47.018 29.754 20.859 9.6 42.68 16.109 65.657 19.026 23.293 2.958 46.428 2.691 69.36-1.62 35.476-6.67 67.597-21.147 96.484-43.02 5.73-4.339 7.137-8.452 5.67-14.97-9.217-40.96-30.597-73.428-66.395-95.96-22.01-13.853-46.104-20.983-72.004-21.855-18.073-.608-35.533 2.62-52.634 8.674-26.977 9.548-48.735 26.02-66.188 48.392-15.757 20.198-25.138 43.163-28.735 69.238m67.7-246.377c-1.474 7.426-1.106 14.815.066 22.264 5.663 35.96 36.793 63.83 73.394 64.79 26.684.7 48.287-10.574 64.254-31.975 11.728-15.719 16.672-33.698 14.322-53.102-2.489-20.554-11.916-37.738-28.085-50.993-17.61-14.437-37.847-19.508-60.132-16.285-19.785 2.862-35.826 12.73-48.113 28.31-8.324 10.557-13.98 22.528-15.707 36.99z"/></svg>